<svg width="50" height="50" viewBox="0 0 50 50" fill="none" xmlns="http://www.w3.org/2000/svg">
<path fill-rule="evenodd" clip-rule="evenodd" d="M0 0V50H50V0H0ZM42.2873 11.0637L36.4127 39.3204C36.2744 39.9876 35.4921 40.2899 34.9401 39.8888L26.9209 34.0667C26.4341 33.7132 25.7702 33.732 25.3042 34.112L20.858 37.7363C20.3421 38.1582 19.5645 37.9231 19.3669 37.2876L16.2797 27.3589L8.30352 24.3821C7.4933 24.0786 7.48637 22.9347 8.29429 22.6235L41.0286 9.99549C41.7225 9.72714 42.4385 10.3351 42.2873 11.0637Z" fill="white" fill-opacity="0.5"/>
<path fill-rule="evenodd" clip-rule="evenodd" d="M34.4579 16.1735L18.8695 25.7743C18.2721 26.143 17.9909 26.8645 18.1836 27.54L19.869 33.4621C19.9889 33.8816 20.5977 33.8388 20.656 33.4053L21.094 30.1577C21.1768 29.5463 21.4683 28.9826 21.9206 28.5619L34.7854 16.6034C35.0262 16.3803 34.7379 16.0015 34.4579 16.1735Z" fill="white" fill-opacity="0.5"/>
</svg>
